<?xml version="1.0" encoding="utf-8"?>
<!-- Generator: Adobe Illustrator 23.0.4, SVG Export Plug-In . SVG Version: 6.00 Build 0)  -->
<svg version="1.1" id="Calque_1" xmlns="http://www.w3.org/2000/svg" xmlns:xlink="http://www.w3.org/1999/xlink" x="0px" y="0px"
	 viewBox="0 0 1022.6 1501.7" style="enable-background:new 0 0 1022.6 1501.7;" xml:space="preserve">
<style type="text/css">
	.st0{fill:#2177AF;}
</style>
<g>
	<g>
		<path class="st0" d="M1015.2,197.9c-1.3,4.3-18.1,25.2-51.6,58.3c-6.8,6.7-13.8,13.5-21,20.3l-100-143.3V0.6h-3.8v127.1l-17-24.3
			l15-102.2L829.4,0l-13.8,94.2l-40.1-57.5l-6.3,4.4l44.7,64.1l-11.5,78.4l-61.9-88.8l-6.3,4.4l66.5,95.4L790,267.8L703.6,144
			l-6.3,4.4l91,130.5l-11.7,79.6l-50.5-81.8l10-67.2l-7.5-1.1l-8.7,58.2L673.3,191l-6.5,4l51.4,83.2l-11.3,76l-30-48.6
			c0.2-2.3,0.4-4.7,0.6-7l-5.1-0.4L633,234.6l-6.5,4l42.5,68.9c-0.2,1.9-0.4,3.8-0.6,5.8l4.5,0.5l32.2,52.2l-12.6,84.6
			c-0.7,0.5-1.4,1-2.1,1.6L656.9,394c0.6-1.5,1.1-3,1.7-4.5l-5.4-1.9l-15.3-26.4l6.2-41.6l-7.5-1.1l-0.1,0.9l-6.4-0.5
			c-0.4,4.9-0.9,9.9-1.5,14.7l5.7,0.7l-2.2,14.9l-1.1-0.2l-43.7-75.7l-6.6,3.8l8.6,14.9c0,2.2,0,4.4-0.1,6.5l3.9,0.1l32,55.3
			c-0.6,2.9-1.3,5.7-2,8.5l6.8,1.8L610,496.1c-3.4,1.3-6.8,2.5-10.3,3.7c-12.6,3.9-24.4,6.9-35.4,9.1l-3.1-6.2
			c-4.5,2.2-9,4.2-13.6,5.8l1.1,3.2c-5.3,0.8-10.3,1.4-15.1,1.9l-0.2-1.1c-4.8,1-9.7,1.6-14.6,2l0,0.1c-0.3,0-0.6,0-0.9,0
			c-2.1,0.1-4.3,0.1-6.4,0.1v1.9h-0.3v-1.9c-2.1,0-4.3,0-6.4-0.1c-0.3,0-0.5,0-0.8,0l0-0.1c-4.9-0.3-9.8-1-14.6-1.9l-0.2,1.1
			c-4.8-0.5-9.9-1.1-15.1-1.9l1.1-3.2c-4.6-1.6-9.2-3.5-13.6-5.7l-3.1,6.1c-11-2.2-22.9-5.2-35.5-9.1c-2.7-0.9-5.4-1.9-8.1-2.9
			l-3.6-24.5c2.9,3.3,5.9,6.5,9,9.5l5.4-5.4c-3.5-3.4-6.9-7.1-10.2-11l-4.6,3.9l-13.1-88c1.4,4,2.9,8,4.6,11.8l7-3
			c-1.9-4.4-3.6-9-5.2-13.7l-6.8,2.3l-2.3-15.1l4.8-1.3c-0.7-2.8-1.4-5.8-2.1-8.7l32-55.3l3.9-0.1c-0.1-2.2-0.1-4.4-0.1-6.5
			l8.6-14.9l-6.6-3.8l-43,74.4l-2-13.5l3.7-0.5c-0.6-4.8-1.1-9.7-1.5-14.7l-4.4,0.3l-0.1-1l-7.5,1.1l5.8,38.8l-17,29.4l-5.3,1.9
			c0.5,1.5,1.1,2.9,1.6,4.4l-33.5,58.1c-0.1,0-0.1-0.1-0.2-0.1l-13.2-88.3l30.7-49.7l4.6-0.5c-0.2-2-0.4-3.9-0.6-5.9l42.5-68.9
			l-6.5-4l-39.5,63.9l-5,0.4c0.2,2.3,0.4,4.5,0.6,6.8l-28.6,46.3l-11.3-76l50-80.9l-6.5-4L304,264.3l-8.3-55.9l-7.5,1.1l9.7,64.9
			l-50.9,82.5l-11.6-79.6l89.9-128.9l-6.3-4.4l-85.2,122.2L223,192.8l65.3-93.7l-6.3-4.4l-60.7,87L210,103.3l43.4-62.2l-6.3-4.4
			l-38.8,55.6L195,0l-7.6,1.1L202,101.4l-16.5,23.7V0.6h-3.8v130.1L79.9,276.4c-7.2-6.8-14.2-13.6-21-20.3
			c-33.5-33.1-50.3-54-51.6-58.3L0,200c4.3,14.5,82.6,96.5,178.6,170.6c1,0.8,2,1.6,3.1,2.4v1126.8h311.2c6,1.3,12.2,1.9,18.4,1.9
			c6.3,0,12.4-0.7,18.4-1.9h313V371.7c0.4-0.3,0.9-0.7,1.3-1c96-74.1,174.3-156.1,178.6-170.6L1015.2,197.9z M937,281.7
			c-13.1,12.2-26.8,24.4-40.8,36.4l-53.6-76.8v-94.9L937,281.7z M890.4,323.1c-13,11-26.2,21.9-39.3,32.3l-8.4-12.1v-88.7
			L890.4,323.1z M820.3,114.3l18.6,26.6v94.9l-30.1-43.2L820.3,114.3z M807.1,203.7l31.7,45.5v88.7L796.4,277L807.1,203.7z
			 M838.8,351.2V365c-13.7,10.6-27,20.4-39.9,29.6l-15.4-25c7.9-11.3,12.6-20.3,13.7-25.1l-7.4-1.7c-0.5,2-2,5.4-4.5,9.9l9.5-64.6
			L838.8,351.2z M185.5,520.4h74.8c0.7,13,3.5,25.7,8.3,38l17.6,120.6H185.5V520.4z M251.1,385.6c7.5,9.3,16.4,19.4,26.8,29.8
			l-6.8,11c-5.1-3.2-10.2-6.6-15.5-10L251.1,385.6z M247,410.8c-5.7-3.8-11.4-7.8-17.2-11.8l12.5-20.3L247,410.8z M745,430.5
			c-15.9,9.9-31.2,18.7-45.7,26.6l0.3-2.3c5.3-4,10.4-8,15.1-11.9c8.7-7.2,16.9-14.6,24.4-21.9L745,430.5z M748.3,551.5
			c-3.8,10.8-9.2,21.1-16,30.9v-62.1h20.6L748.3,551.5z M270.7,520.4H290v61.9c-5.7-8.3-10.5-17-14.1-26L270.7,520.4z M504.8,522.2
			c0.8,0,1.7,0,2.5,0.1v154.9c-23.2-0.2-45.6-2.7-66.8-7l-22.3-149.7h60.7C487.3,521.4,496,522,504.8,522.2z M515,522.2
			c0.9,0,1.9,0,2.8-0.1c8.8-0.2,17.5-0.8,25.9-1.8h62.7l-22.2,149.3c-21.9,4.6-45.1,7.2-69.2,7.4V522.2z M700.5,876.8
			c-10.7,40.2-39,74.8-77.8,97.8v-3.5l18.7-125.8h63.7c0,0.1,0,0.1,0,0.2L700.5,876.8z M658.3,1164h-3.2c0,0.8,0,1.7,0,2.5h-32.4
			v-36.7c21-16.4,38.1-37.2,49.6-61.1L658.3,1164z M350.7,1069.9c11.5,23.3,28.3,43.7,48.9,59.8v36.8h-32.2c0-0.8,0-1.7,0-2.5h-3
			L350.7,1069.9z M341.8,1008.4c0-0.2,0-0.4,0-0.6h57.9v112.1c-27.2-22.8-46.8-53.8-54.6-89L341.8,1008.4z M639,810
			c-5.3,2.9-10.7,5.7-16.3,8.3V682.9h35.2L639,810z M665.6,682.9h60.9c-1.6,49.2-32.1,93-79.1,122.1L665.6,682.9z M618.9,1123.2
			c-6.6,5.2-13.6,9.9-20.9,14.1l19.3-129.4h1.7V1123.2z M622.7,1007.8h58.1c-3.1,44.7-24.9,84.5-58.1,112.2V1007.8z M366.4,682.9
			h33.2v135.3c-4.8-2.2-9.5-4.6-14.1-7.1L366.4,682.9z M377.1,806.2c-48.1-29.1-79.4-73.5-81.1-123.3h62.7L377.1,806.2z
			 M507.3,1011.9v106.6l-16-107.4C496.6,1011.6,502,1011.8,507.3,1011.9z M515,1011.9c6.2-0.1,12.3-0.4,18.3-1L515,1134V1011.9z
			 M507.3,849.4V1004h-8c-3.1-0.2-6.2-0.4-9.2-0.7l-23.4-157.3C479.9,848.1,493.5,849.3,507.3,849.4z M467.1,1007.8
			c5.4,1,10.8,1.9,16.4,2.5l22.3,149.7c-25.4-0.8-49.4-6.9-70.9-17.3l-20.1-134.9H467.1z M414.3,1004l-2.1-14.2
			c12.1,5.8,24.9,10.6,38.3,14.2H414.3z M541.1,1010.1c4.8-0.6,9.5-1.4,14.2-2.2h54.1l-20,133.9c-21.3,10.7-45.3,17.1-70.7,18.2
			L541.1,1010.1z M572.1,1004c14.2-3.8,27.6-8.9,40.3-15.1l-2.3,15.1H572.1z M523.1,1004H515V849.5c14.7-0.2,29.1-1.5,43-3.7
			l-23.5,157.5C530.7,1003.6,526.9,1003.8,523.1,1004z M507.3,684.7v156.8h-9.2c-11.1-0.5-22-1.7-32.5-3.4l-23.1-155.3h31
			C484.6,684,495.9,684.6,507.3,684.7z M457.6,836.7c-19.2-3.7-37.4-9.5-54.2-16.8v-137h31.3L457.6,836.7z M444,841.5h-40.6v-13.4
			C416.2,833.6,429.8,838.1,444,841.5z M399.6,826.5v15H390l-3.2-21.1C391,822.5,395.3,824.6,399.6,826.5z M399.6,845.4v60.5
			l-9-60.5H399.6z M403.4,845.4h55.5l23.4,157.2c-25.9-3.3-50.1-10.8-71.6-21.8l-7.3-49.3V845.4z M403.8,985.6l2.7,18.4h-3.1v-18.6
			C403.6,985.5,403.7,985.6,403.8,985.6z M407.1,1007.8l19.5,130.6c-8.2-4.5-15.9-9.7-23.1-15.4v-115.2H407.1z M428,1147.8l2.8,18.7
			h-27.3v-33.9C411.1,1138.3,419.3,1143.4,428,1147.8z M436.3,1151.8c16.5,7.4,34.4,12.5,53.2,14.7h-51L436.3,1151.8z M507.3,1170.3
			V1327c-16.3-0.5-31.9-4.1-46.5-10.3L439,1170.3H507.3z M515,1170.3h70.3l-21.7,145.6c-15.1,6.7-31.5,10.6-48.6,11.1V1170.3z
			 M533,1166.5c19.6-2.3,38.1-7.7,55.2-15.6l-2.3,15.6H533z M596.5,1146.8c7.8-4.1,15.3-8.8,22.4-14v33.8h-25.3L596.5,1146.8z
			 M617.8,1004l1.1-7.3v7.3H617.8z M613.7,979.7c-21.4,11.2-45.5,19.1-71.4,22.6l23.4-156.9h53.2V945L613.7,979.7z M578.5,841.5
			c14.1-3.4,27.6-7.9,40.4-13.3v13.3H578.5z M622.7,845.4h11l-11,74V845.4z M622.7,841.5v-15c5.1-2.3,10.1-4.7,14.9-7.2l-3.3,22.2
			H622.7z M618.9,820c-16.1,7.1-33.5,12.6-51.8,16.3l22.9-153.4h29V820z M559.1,837.8c-11.3,1.9-22.9,3.2-34.7,3.8H515V684.7
			c11.5-0.1,22.9-0.7,34.1-1.9h33.2L559.1,837.8z M576.1,679.1c2.3-0.4,4.6-0.8,6.8-1.3l-0.2,1.3H576.1z M441.8,679.1l-0.1-0.9
			c1.5,0.3,3.1,0.6,4.6,0.9H441.8z M434.1,679.1h-30.7v-10.7c9.8,3.2,20,5.9,30.3,8.2L434.1,679.1z M399.6,679.1h-33.8l-4.1-27.7
			c12,6.1,24.7,11.3,37.9,15.8V679.1z M358.1,679.1h-62.2c0-0.1,0-0.2,0-0.3h-2.1v-79c11,12.8,24.5,24.7,40.4,35.4
			c6.1,4.1,12.5,8,19.2,11.7L358.1,679.1z M378.5,815.8l3.8,25.7h-64.9l-15-102.8C317.7,769.7,344.4,796.4,378.5,815.8z M318,845.4
			h64.9l16.7,112.3v16.9c-37.2-22.1-64.8-54.9-76.3-93L318,845.4z M399.6,983.3v20.7h-58.1c-0.1-2.3-0.2-4.6-0.2-7h-1.2l-12.4-85.3
			C343.4,940.9,368.5,965.7,399.6,983.3z M399.6,1170.3v96.4c-19-26.5-30.9-60-32.1-96.4H399.6z M403.4,1170.3h27.9l21.2,142.6
			c-18.9-9.6-35.6-23.7-49.1-41V1170.3z M453.9,1322l1,7h-51.5v-45.2C417.7,1300.1,434.8,1313.2,453.9,1322z M462.2,1325.5
			c3.3,1.3,6.7,2.5,10.2,3.5h-9.6L462.2,1325.5z M562.3,1324.8l-0.6,4.3h-11.5C554.3,1327.8,558.3,1326.4,562.3,1324.8z
			 M570.5,1321.1c18.2-8.8,34.6-21.4,48.3-37.1v45h-49.5L570.5,1321.1z M571.9,1311.9l21.1-141.5h25.9v101.8
			C605.8,1288.7,589.9,1302.4,571.9,1311.9z M622.7,1170.3H655c-1.2,36.6-13.1,70.1-32.3,96.7V1170.3z M682.9,997.1h-1.7
			c0,2.3-0.1,4.7-0.2,7h-58.3v-20.6c31.8-17.9,57.3-43.3,72.9-73.2L682.9,997.1z M705.8,841.2h-0.6c0,0.1,0,0.2,0,0.3H642l4-26.9
			c34.1-19.8,60.5-47,75.2-78.4L705.8,841.2z M726.6,678.7c0,0.1,0,0.2,0,0.3h-60.4l5-33.3c5.9-3.3,11.6-6.8,17.2-10.6
			c15.8-10.7,29.2-22.5,40.2-35.2v78.7H726.6z M658.5,679.1h-35.8v-11.9c14-4.7,27.5-10.4,40.1-16.9L658.5,679.1z M618.9,679.1
			h-28.4l0.4-3c9.5-2.2,18.9-4.7,27.9-7.6V679.1z M592.1,667.9l22-147.5h4.7v140C610.2,663.2,601.3,665.7,592.1,667.9z M432.5,668.4
			c-10-2.3-19.7-5-29.1-8.1V520.4h7L432.5,668.4z M341.6,516.6l-6.7-44.8c24,12.2,48.5,22.9,73,31.3l2,13.5H341.6z M399.6,520.4V659
			c-13.9-4.8-27.1-10.5-39.3-17l-18.1-121.6H399.6z M351.9,637.3c-23.9-13.9-43.7-30.8-58.1-49.8v-67.1h40.6L351.9,637.3z
			 M290,595.2v57.7l-10.6-72.7C282.6,585.3,286.1,590.3,290,595.2z M309.7,841.2L309.7,841.2c-0.1,0.1,0,0.2,0,0.3h-15.8V732
			L309.7,841.2z M309.7,845.4c0.4,13,2.5,25.7,6.1,37.8l17.6,120.9h-39.6V845.4H309.7z M334,1007.8l0.2,1.4
			c0.6,7.9,1.7,15.6,3.4,23.1l19.5,134.2h-63.3v-158.7H334z M399.6,1279.3v49.7h-11.2l-13-89.5
			C381.8,1254.1,390,1267.4,399.6,1279.3z M395.7,1332.8h3.9v40.1C397.2,1360.1,395.9,1346.7,395.7,1332.8z M399.6,1403v2.8l-0.7-5
			C399.1,1401.5,399.4,1402.3,399.6,1403z M403.4,1332.8h52.1l23,154.6c-34.5-14.4-62.3-50.9-75.1-97.9V1332.8z M463.3,1332.8h25.4
			c6.1,1,12.4,1.7,18.7,1.9v159.3c-7-0.3-13.9-1.6-20.6-3.6L463.3,1332.8z M515,1334.7c6.4-0.2,12.7-0.8,18.9-1.9h27.2l-23.4,156.9
			c-7.3,2.4-14.9,3.9-22.7,4.2V1334.7z M568.8,1332.8h50.1v57.4c-12.7,45.8-39.6,81.5-73,96.4L568.8,1332.8z M622.7,1332.8h4.1
			c-0.1,14.2-1.5,28-4.1,41.1V1332.8z M623.5,1401.1l-0.8,5.6v-3.1C623,1402.7,623.2,1401.9,623.5,1401.1z M622.7,1329v-49.5
			c9.8-12.1,18.2-25.7,24.6-40.6l-13.2,90.1H622.7z M689,1007.8h39.5v158.7h-62.8L689,1007.8z M689.6,1004L708,878.3
			c2.7-10.4,4.3-21.1,4.7-32.1l0.1-0.9h15.6V1004H689.6z M713.4,841.5L728.5,739v102.5H713.4z M732.3,660.5v-65.1
			c4.6-5.7,8.6-11.6,12.2-17.6L732.3,660.5z M728.5,587.8c-14,18.4-33,34.8-55.9,48.3l17.2-115.7h38.6V587.8z M664.2,640.9
			c-12.8,6.9-26.7,13-41.5,18.2V520.4h59.5L664.2,640.9z M614.7,516.6l2.1-14.3c24.4-8.5,48.8-19.3,72.7-31.5l-6.8,45.8H614.7z
			 M608.7,505l-1.7,11.5h-39.7c11.3-2.3,22.2-5.3,32.6-8.7C602.8,506.9,605.8,506,608.7,505z M455.3,516.6h-37.7l-1.6-10.8
			c2.2,0.7,4.5,1.4,6.7,2.1C433.2,511.3,444,514.2,455.3,516.6z M325.2,458.1c-15.1-8.1-31-17.2-47.7-27.6l5.9-9.6
			c7.5,7.3,15.6,14.6,24.4,21.9c5.3,4.4,11,8.9,17.1,13.4L325.2,458.1z M326.6,467.4l7.3,49.2h-63.7L257,426.5
			C279.3,440.9,302.7,454.8,326.6,467.4z M185.5,682.9h101.2l3.3,23v135.7H185.5V682.9z M185.5,845.4H290V1004H185.5V845.4z
			 M185.5,1007.8H290v158.7H185.5V1007.8z M185.5,1170.3H290V1329H185.5V1170.3z M293.8,1170.3h63.8l23.1,158.7h-86.9V1170.3z
			 M381.3,1332.8l18.3,126v37.1H293.8v-163.1H381.3z M403.4,1485l1.6,10.9h-1.6V1485z M403.4,1432.1v-18.7
			c16.1,40.2,43.5,70.5,76.2,82.6h-66.9L403.4,1432.1z M544.6,1495.3c31.8-12.4,58.5-42.2,74.3-81.5v18.8l-9.3,63.3h-65.1
			L544.6,1495.3z M618.9,1485.1v10.8h-1.6L618.9,1485.1z M622.7,1459.2l18.6-126.3h87.2V1496H622.7V1459.2z M641.8,1329l23.3-158.7
			h63.4V1329H641.8z M732.3,1170.3h106.5V1329H732.3V1170.3z M732.3,1166.5v-158.7h106.5v158.7H732.3z M732.3,1004V845.4h106.5V1004
			H732.3z M732.3,841.5V713l4.4-30.2h102.1v158.7H732.3z M737.3,679.1l18.4-125.5c3.7-10.8,5.9-21.9,6.5-33.2h76.6v158.7H737.3z
			 M753.5,516.6h-63l7.5-50.2c23.7-12.5,46.9-26.4,68.9-40.8L753.5,516.6z M751.5,426.5l-6.8-11c11-11.1,20.5-21.9,28.3-31.7
			l-4.7,31.9C762.6,419.4,757,423,751.5,426.5z M781.2,380.3l11.5,18.7c-5.4,3.8-10.6,7.4-15.9,10.9L781.2,380.3z M724.4,288.3
			l50,80.9c-8.1,11.2-19.4,25-33.8,39.6l-27.5-44.5L724.4,288.3z M711.4,376l23.7,38.3c-7.6,7.4-16,15-25.2,22.6
			c-2.8,2.3-5.6,4.6-8.6,6.9L711.4,376z M623.5,457.4c2.8-3.9,5.5-7.9,8.2-12l-5.8-3.7l10.2-68.5l12.4,21.5
			c-0.8,2.1-1.7,4.3-2.5,6.3l7.1,2.9c0.1-0.3,0.2-0.6,0.3-0.8l30.9,53.4c-18.9,13.2-41,26-65.9,36.3L623.5,457.4z M369.3,403.1
			c0.1,0.3,0.3,0.6,0.4,1l7-2.9c-0.9-2.1-1.7-4.3-2.6-6.4l14-24.3l11,73.6c-0.6-0.9-1.1-1.8-1.7-2.6l-6.4,4.1
			c2.8,4.4,5.8,8.8,8.8,12.9l1.4-1l5.4,36.4c-25.8-10.4-48.7-23.7-68.1-37.2L369.3,403.1z M323.3,445.5c-3.7-2.9-7.2-5.7-10.6-8.5
			c-9.2-7.6-17.5-15.2-25.2-22.6l25.1-40.6L323.3,445.5z M299.5,286l11.3,76L282,408.8c-14-14.2-25.1-27.6-33.1-38.6l-0.2-1.6
			L299.5,286z M239,355.5c-3.6-5.9-5.7-10.4-6.2-12.8l-7.4,1.7c1.1,4.8,5.8,13.8,13.7,25.1l-15.4,25c-12.4-8.8-25.1-18.2-38.1-28.2
			v-17.6l43.5-62.3L239,355.5z M227.3,275.3l-41.9,60v-88.7l31.2-44.7L227.3,275.3z M181.6,340.9l-10.2,14.6
			c-13.2-10.4-26.4-21.2-39.3-32.3l49.5-71V340.9z M203.6,112.4l11.4,78.5l-29.6,42.4v-94.9L203.6,112.4z M181.6,143.9v94.9
			l-55.3,79.3c-14-12-27.6-24.2-40.8-36.4L181.6,143.9z M177.5,360.1l4.1-5.9v9.2C180.3,362.3,178.9,361.2,177.5,360.1z
			 M248.5,420.9l13.6,93.2H260c0,0.8,0,1.7,0,2.5h-74.6V375.9C204.9,390.7,226.1,406,248.5,420.9z M185.5,1332.8H290V1496H185.5
			V1332.8z M732.3,1496v-163.1h106.5V1496H732.3z M838.8,516.6h-76.4c0-0.8,0-1.7,0-2.5h-0.9l13.8-94c22.6-15,44-30.5,63.5-45.4
			V516.6z M842.7,362v-5.3l2.4,3.4C844.3,360.8,843.5,361.4,842.7,362z"/>
		<path class="st0" d="M678.3,275.5h-7.6c0,2.5,0,5-0.1,7.5l7.6,0.2C678.3,280.6,678.3,278,678.3,275.5z"/>
		<path class="st0" d="M656.1,372.5l7.3,2.2c1.5-4.9,2.9-9.9,4.2-14.9l-7.4-1.9C659,362.8,657.6,367.7,656.1,372.5z"/>
		<path class="st0" d="M591,492.5l-4.8-5.9c-3.9,3.2-7.9,6.2-12,8.8l4.2,6.4C582.6,498.9,586.9,495.8,591,492.5z"/>
		<path class="st0" d="M602.6,482c3.6-3.6,7.2-7.4,10.6-11.5l-5.8-5c-3.3,3.9-6.7,7.6-10.2,11L602.6,482z"/>
		<path class="st0" d="M632.9,428.3l6.7,3.7c2.4-4.5,4.8-9.1,7.1-13.8l-6.9-3.3C637.6,419.4,635.3,424,632.9,428.3z"/>
		<path class="st0" d="M448.5,495.4c-4.1-2.7-8.1-5.6-12-8.8l-4.8,5.9c4.1,3.4,8.4,6.5,12.7,9.3L448.5,495.4z"/>
		<path class="st0" d="M376,418.3c2.3,4.7,4.6,9.4,7.1,13.8l6.7-3.7c-2.4-4.3-4.7-8.9-6.9-13.4L376,418.3z"/>
		<path class="st0" d="M348.7,329.6c0.8,5.1,1.8,10.2,2.8,15.2l7.5-1.6c-1-4.9-2-9.9-2.8-14.9L348.7,329.6z"/>
		<path class="st0" d="M366.5,372.7c-1.5-4.8-2.8-9.7-4.1-14.6L355,360c1.3,5,2.7,10,4.2,14.9L366.5,372.7z"/>
		<path class="st0" d="M673.9,329.5l-7.5-1.2c-0.8,5-1.7,10-2.8,14.9l7.5,1.6C672.1,339.7,673.1,334.5,673.9,329.5z"/>
		<path class="st0" d="M344.3,283.2l7.6-0.2c-0.1-2.5-0.1-5.1-0.1-7.5h-7.6C344.3,278,344.3,280.6,344.3,283.2z"/>
		<path class="st0" d="M638.4,296.5h-7.6c0,2.5,0,5.1-0.1,7.5l7.6,0.2C638.4,301.7,638.4,299.1,638.4,296.5z"/>
		<path class="st0" d="M490.1,468.1c-4.6-1.2-9.2-2.7-13.6-4.6l-3,7c4.8,2,9.8,3.7,14.7,5L490.1,468.1z"/>
		<path class="st0" d="M581.8,438.9l5.4,5.4c3.5-3.6,7-7.5,10.2-11.5l-6-4.8C588.4,431.8,585.1,435.5,581.8,438.9z"/>
		<path class="st0" d="M626,378.9l-7.2-2.4c-1.6,4.7-3.3,9.3-5.2,13.7l7,3C622.5,388.6,624.3,383.8,626,378.9z"/>
		<path class="st0" d="M599.9,416.1l6.4,4.1c2.7-4.2,5.3-8.7,7.7-13.2l-6.8-3.5C605,407.9,602.5,412.1,599.9,416.1z"/>
		<path class="st0" d="M532.7,468.1l1.9,7.4c4.9-1.3,9.9-2.9,14.7-5l-3-7C541.8,465.3,537.2,466.9,532.7,468.1z"/>
		<path class="st0" d="M559.1,456.9l3.9,6.5c4.3-2.6,8.6-5.6,12.7-8.8l-4.8-6C567.1,451.6,563.2,454.4,559.1,456.9z"/>
		<path class="st0" d="M435.5,444.4l5.4-5.4c-3.4-3.4-6.6-7-9.7-10.9l-6,4.8C428.5,437,432,440.8,435.5,444.4z"/>
		<path class="st0" d="M463.6,457c-4.1-2.4-8.1-5.2-11.9-8.3l-4.7,6c4.1,3.2,8.4,6.2,12.7,8.8L463.6,457z"/>
		<path class="st0" d="M511.2,470.8c-2.3,0-4.6-0.1-6.9-0.3l-0.6,7.6c2.5,0.2,5.1,0.3,7.6,0.3h0.3c2.6,0,5.2-0.1,7.8-0.3l-0.7-7.6
			c-2.4,0.2-4.8,0.3-7.1,0.3H511.2z"/>
		<path class="st0" d="M416.3,420.4l6.4-4.1c-2.6-4-5.1-8.3-7.4-12.6l-6.8,3.5C411,411.8,413.6,416.2,416.3,420.4z"/>
		<path class="st0" d="M384.2,304.2l7.6-0.2c-0.1-2.5-0.1-5-0.1-7.5h-7.6C384.1,299.1,384.2,301.7,384.2,304.2z"/>
		<path class="st0" d="M469,404.3c-3.2-3.2-6.3-6.8-9.1-10.7l-6.2,4.5c3,4.2,6.4,8.1,9.9,11.6L469,404.3z"/>
		<path class="st0" d="M426.6,313.7c0.4,5,0.9,10,1.6,14.8l7.6-1c-0.6-4.6-1.1-9.4-1.5-14.3L426.6,313.7z"/>
		<path class="st0" d="M491.7,420.2c-4.1-1.8-8.2-4.2-12.1-6.9l-4.4,6.2c4.3,3,8.8,5.6,13.3,7.6L491.7,420.2z"/>
		<path class="st0" d="M441.7,355.4c-1.3-4.4-2.5-9.1-3.5-13.9l-7.5,1.6c1,5,2.3,9.9,3.6,14.5L441.7,355.4z"/>
		<path class="st0" d="M547.4,419.4l-4.4-6.2c-3.9,2.7-7.9,5-12,6.9l3.1,7C538.7,425,543.2,422.4,547.4,419.4z"/>
		<path class="st0" d="M445.7,385.4l6.7-3.6c-2.2-4-4.2-8.3-6-12.8l-7.1,2.9C441.2,376.5,443.3,381.1,445.7,385.4z"/>
		<path class="st0" d="M568.9,398l-6.2-4.5c-2.8,3.9-5.9,7.5-9.1,10.7l5.4,5.4C562.6,406.1,565.9,402.2,568.9,398z"/>
		<path class="st0" d="M583.4,371.6l-7.1-2.8c-1.8,4.5-3.8,8.8-6,12.8l6.7,3.6C579.3,380.9,581.5,376.3,583.4,371.6z"/>
		<path class="st0" d="M511.4,432.6c2.4,0,5.1-0.3,8-0.8l-1.4-7.5c-2.4,0.4-4.6,0.7-6.5,0.7h-0.3c-1.9,0-4.1-0.2-6.4-0.6l-1.4,7.5
			c2.8,0.5,5.4,0.8,7.7,0.8H511.4z"/>
		<path class="st0" d="M581,355.3l7.3,2.2c1.4-4.6,2.6-9.5,3.6-14.5l-7.5-1.6C583.4,346.2,582.3,350.8,581,355.3z"/>
		<path class="st0" d="M586.8,327.2l7.6,1c0.6-4.8,1.2-9.7,1.5-14.8l-7.6-0.6C588,317.8,587.5,322.6,586.8,327.2z"/>
		<polygon class="st0" points="217.6,458.8 217.9,458.8 217.9,509.9 231,509.9 231,446.6 217.8,446.6 201.5,458 201.5,469.7 		"/>
		<path class="st0" d="M213.9,661.8v-0.6l13.2-12.1c3.7-3.4,6.5-6.2,8.6-8.7c2.1-2.4,3.6-4.7,4.5-6.9c0.9-2.2,1.4-4.5,1.4-7.1v-0.1
			c0-3.6-1-6.8-2.8-9.5c-1.9-2.8-4.5-4.9-7.9-6.5c-3.4-1.6-7.3-2.4-11.8-2.4c-4.4,0-8.4,0.9-11.9,2.6c-3.5,1.7-6.3,4.1-8.3,7.2
			c-2,3.1-3,6.6-3,10.5v0.4h12.3l0-0.4c0.1-1.9,0.6-3.6,1.5-5.1c0.9-1.5,2.2-2.7,3.9-3.5s3.5-1.3,5.7-1.3c1.9,0,3.5,0.4,5,1.1
			c1.4,0.8,2.6,1.8,3.4,3.1c0.8,1.3,1.2,2.9,1.2,4.6v0.1c0,1.5-0.3,2.9-0.8,4.2c-0.5,1.3-1.5,2.8-2.9,4.5c-1.4,1.7-3.5,3.8-6.2,6.4
			l-22.3,20.9v9.1h46v-10.5H213.9z"/>
		<path class="st0" d="M239.3,806.5c-2.8-2.6-6.6-4.1-11.3-4.6v-0.3c2.5-0.5,4.7-1.4,6.7-2.7c2-1.3,3.6-2.9,4.8-4.9
			c1.2-2,1.8-4.3,1.8-6.9V787c0-3.3-0.9-6.2-2.8-8.7c-1.8-2.5-4.4-4.4-7.8-5.8c-3.3-1.4-7.3-2.1-11.9-2.1c-4.4,0-8.3,0.8-11.7,2.3
			c-3.4,1.5-6,3.6-8,6.3c-2,2.7-3.1,5.9-3.4,9.6l0,0.6h12.2l0-0.4c0.2-1.6,0.8-3.1,1.7-4.3c0.9-1.2,2.2-2.1,3.8-2.8
			c1.6-0.7,3.4-1,5.4-1c2.1,0,3.8,0.3,5.3,1c1.5,0.6,2.6,1.6,3.4,2.8c0.8,1.2,1.2,2.7,1.2,4.4v0.1c0,1.7-0.5,3.2-1.4,4.5
			c-0.9,1.3-2.2,2.3-3.8,3c-1.6,0.7-3.5,1.1-5.8,1.1h-7.1v9.5h7.2c3.8,0,6.8,0.8,8.9,2.4c2.1,1.6,3.2,3.9,3.2,6.9v0.1
			c0,1.7-0.5,3.2-1.4,4.6c-0.9,1.3-2.2,2.4-3.9,3.1c-1.7,0.7-3.6,1.1-5.9,1.1c-3.4,0-6.2-0.8-8.3-2.3c-2.1-1.5-3.3-3.4-3.6-5.6
			l-0.1-0.5h-12.7l0,0.6c0.3,3.6,1.5,6.8,3.6,9.6c2.1,2.8,4.9,4.9,8.5,6.5c3.6,1.6,7.8,2.3,12.6,2.3c4.9,0,9.2-0.8,12.9-2.4
			c3.7-1.6,6.5-3.8,8.6-6.6c2-2.8,3.1-6.2,3.1-9.9v-0.1C243.5,812.5,242.1,809.1,239.3,806.5z"/>
		<path class="st0" d="M237.3,975V934h-18.7c-1.7,2.7-3.3,5.4-5,8.1c-1.7,2.7-3.4,5.4-5.1,8.1c-1.7,2.7-3.4,5.4-5.1,8.1
			c-1.7,2.7-3.4,5.4-5.1,8.1c-1.7,2.7-3.4,5.4-5,8.1v11.1h31.4v11.6h12.6v-11.6h8.3V975H237.3z M224.9,975.4h-20.2V975
			c1.3-2.1,2.6-4.2,4-6.3c1.3-2.1,2.7-4.2,4-6.3c1.3-2.1,2.7-4.2,4-6.3s2.7-4.2,4-6.3c1.3-2.1,2.6-4.2,3.9-6.3h0.3V975.4z"/>
		<path class="st0" d="M241.6,1127.8c-1.8-3.1-4.2-5.5-7.3-7.3c-3.1-1.8-6.7-2.7-10.7-2.7c-3.2,0-6.1,0.6-8.5,1.8
			c-2.5,1.2-4.4,2.9-5.7,5h-0.3l1.5-17.8h29.8v-10.5h-40.3l-2.9,37.2h11.5c0.4-0.7,0.8-1.3,1.3-1.9c0.5-0.6,1.1-1.1,1.7-1.6
			c1.1-0.9,2.3-1.5,3.7-2c1.4-0.5,2.9-0.7,4.5-0.7c2.3,0,4.3,0.5,6,1.4s3.1,2.3,4.1,4c1,1.7,1.5,3.7,1.5,5.9v0.1
			c0,2.2-0.5,4.2-1.5,6c-1,1.7-2.4,3.1-4.1,4.1c-1.8,1-3.8,1.5-6.1,1.5c-2,0-3.8-0.4-5.4-1.1c-1.6-0.7-2.9-1.8-4-3
			c-1-1.3-1.7-2.7-2-4.3l-0.1-0.3h-12.2l0,0.7c0.3,3.5,1.4,6.7,3.4,9.5c2,2.8,4.7,5,8.2,6.7c3.4,1.6,7.5,2.5,12,2.5
			c4.8,0,9.1-0.9,12.7-2.8c3.7-1.9,6.5-4.5,8.6-7.8c2.1-3.3,3.1-7.2,3.1-11.6v-0.1C244.3,1134.5,243.4,1130.9,241.6,1127.8z"/>
		<path class="st0" d="M241.6,1290.4c-1.7-3.1-4.1-5.5-7.2-7.3c-3.1-1.8-6.7-2.6-10.8-2.6c-2.8,0-5.4,0.4-7.7,1.3
			c-2.3,0.9-4.2,2.1-5.9,3.6c-1.6,1.5-2.9,3.3-3.7,5.2h-0.3c0-0.4,0-0.7,0-1.1c0-0.4,0-0.9,0.1-1.3c0.2-3.7,0.8-7.1,1.8-10.1
			c1-3,2.5-5.4,4.4-7.2c2-1.8,4.5-2.7,7.6-2.7c1.7,0,3.3,0.3,4.6,0.8c1.3,0.5,2.5,1.3,3.4,2.2c0.9,0.9,1.7,2.1,2.2,3.4l0.2,0.4h13.1
			l-0.1-0.4c-0.6-3.3-2-6.2-4.1-8.7c-2.1-2.5-4.9-4.5-8.1-6c-3.3-1.4-7-2.2-11-2.2c-5.5,0-10.2,1.3-14.2,4c-4,2.6-7,6.4-9.2,11.4
			c-2.1,5-3.2,10.9-3.2,17.8v0.1c0,5.4,0.7,10.1,2,14.1c1.3,4,3.2,7.4,5.5,10c2.4,2.7,5.2,4.7,8.4,6c3.2,1.3,6.7,2,10.6,2
			c4.7,0,8.9-0.9,12.6-2.8c3.7-1.9,6.5-4.5,8.7-7.8c2.1-3.3,3.2-7.1,3.2-11.5v-0.1C244.2,1297,243.4,1293.5,241.6,1290.4z
			 M231.3,1301.6c0,2.1-0.5,3.9-1.6,5.6c-1,1.7-2.4,3-4.2,4c-1.8,1-3.7,1.5-5.9,1.5s-4.1-0.5-5.9-1.5c-1.8-1-3.1-2.4-4.2-4.1
			c-1-1.7-1.5-3.6-1.5-5.7v-0.1c0-2.1,0.5-4,1.5-5.7c1-1.7,2.4-3,4.2-3.9c1.8-0.9,3.8-1.4,6-1.4c2.2,0,4.1,0.5,5.9,1.4
			c1.7,1,3.1,2.3,4.1,3.9C230.8,1297.3,231.3,1299.3,231.3,1301.6L231.3,1301.6z"/>
		<polygon class="st0" points="196.3,1421.3 196.3,1431.8 228.5,1431.8 228.5,1432.1 201.2,1484.6 215.1,1484.6 241.5,1432 
			241.5,1421.3 		"/>
		<polygon class="st0" points="804.7,458.8 804.9,458.8 804.9,509.9 818.1,509.9 818.1,446.6 804.9,446.6 788.5,458 788.5,469.7 		
			"/>
		<path class="st0" d="M800.9,661.8v-0.6l13.2-12.1c3.6-3.4,6.5-6.2,8.6-8.7c2.1-2.4,3.6-4.7,4.5-6.9c0.9-2.2,1.4-4.5,1.4-7.1v-0.1
			c0-3.6-1-6.8-2.8-9.5c-1.9-2.8-4.5-4.9-7.9-6.5c-3.4-1.6-7.3-2.4-11.8-2.4c-4.4,0-8.4,0.9-11.9,2.6c-3.5,1.7-6.3,4.1-8.3,7.2
			c-2,3.1-3,6.6-3,10.5v0.4h12.3l0-0.4c0.1-1.9,0.6-3.6,1.5-5.1c0.9-1.5,2.2-2.7,3.9-3.5c1.6-0.9,3.5-1.3,5.7-1.3
			c1.9,0,3.5,0.4,4.9,1.1c1.4,0.8,2.6,1.8,3.4,3.1c0.8,1.3,1.2,2.9,1.2,4.6v0.1c0,1.5-0.3,2.9-0.8,4.2c-0.5,1.3-1.5,2.8-2.9,4.5
			c-1.4,1.7-3.5,3.8-6.2,6.4l-22.3,20.9v9.1h46v-10.5H800.9z"/>
		<path class="st0" d="M826.3,806.5c-2.8-2.6-6.6-4.1-11.3-4.6v-0.3c2.5-0.5,4.7-1.4,6.7-2.7c2-1.3,3.6-2.9,4.8-4.9
			c1.2-2,1.8-4.3,1.8-6.9V787c0-3.3-0.9-6.2-2.8-8.7c-1.8-2.5-4.4-4.4-7.8-5.8c-3.3-1.4-7.3-2.1-11.9-2.1c-4.4,0-8.3,0.8-11.7,2.3
			s-6,3.6-8,6.3c-2,2.7-3.1,5.9-3.4,9.6l0,0.6h12.2l0-0.4c0.2-1.6,0.8-3.1,1.7-4.3c0.9-1.2,2.2-2.1,3.8-2.8c1.6-0.7,3.4-1,5.4-1
			c2.1,0,3.8,0.3,5.3,1c1.5,0.6,2.6,1.6,3.4,2.8c0.8,1.2,1.2,2.7,1.2,4.4v0.1c0,1.7-0.5,3.2-1.4,4.5c-0.9,1.3-2.2,2.3-3.8,3
			c-1.6,0.7-3.5,1.1-5.8,1.1h-7.1v9.5h7.2c3.8,0,6.8,0.8,8.9,2.4c2.1,1.6,3.2,3.9,3.2,6.9v0.1c0,1.7-0.5,3.2-1.4,4.6
			c-0.9,1.3-2.2,2.4-3.9,3.1c-1.7,0.7-3.6,1.1-5.9,1.1c-3.4,0-6.2-0.8-8.3-2.3c-2.1-1.5-3.3-3.4-3.6-5.6l-0.1-0.5h-12.7l0,0.6
			c0.3,3.6,1.5,6.8,3.6,9.6s4.9,4.9,8.5,6.5c3.6,1.6,7.8,2.3,12.6,2.3c4.9,0,9.2-0.8,12.9-2.4c3.7-1.6,6.5-3.8,8.6-6.6
			c2-2.8,3.1-6.2,3.1-9.9v-0.1C830.5,812.5,829.1,809.1,826.3,806.5z"/>
		<path class="st0" d="M824.3,975V934h-18.7c-1.7,2.7-3.3,5.4-5,8.1c-1.7,2.7-3.4,5.4-5.1,8.1c-1.7,2.7-3.4,5.4-5.1,8.1
			c-1.7,2.7-3.4,5.4-5.1,8.1c-1.7,2.7-3.4,5.4-5,8.1v11.1h31.4v11.6h12.6v-11.6h8.3V975H824.3z M812,975.4h-20.2V975
			c1.3-2.1,2.6-4.2,4-6.3c1.3-2.1,2.7-4.2,4-6.3c1.3-2.1,2.7-4.2,4-6.3c1.3-2.1,2.7-4.2,4-6.3s2.6-4.2,3.9-6.3h0.3V975.4z"/>
		<path class="st0" d="M828.7,1127.8c-1.8-3.1-4.2-5.5-7.3-7.3c-3.1-1.8-6.7-2.7-10.7-2.7c-3.2,0-6.1,0.6-8.5,1.8
			c-2.5,1.2-4.4,2.9-5.7,5h-0.3l1.5-17.8h29.8v-10.5h-40.3l-2.9,37.2h11.5c0.4-0.7,0.8-1.3,1.3-1.9c0.5-0.6,1.1-1.1,1.7-1.6
			c1.1-0.9,2.3-1.5,3.7-2c1.4-0.5,2.9-0.7,4.5-0.7c2.3,0,4.3,0.5,6,1.4c1.8,1,3.1,2.3,4.1,4c1,1.7,1.5,3.7,1.5,5.9v0.1
			c0,2.2-0.5,4.2-1.5,6c-1,1.7-2.4,3.1-4.1,4.1c-1.8,1-3.8,1.5-6.1,1.5c-2,0-3.8-0.4-5.4-1.1c-1.6-0.7-2.9-1.8-4-3
			c-1-1.3-1.7-2.7-2-4.3l-0.1-0.3h-12.2l0,0.7c0.3,3.5,1.4,6.7,3.4,9.5c2,2.8,4.7,5,8.2,6.7c3.4,1.6,7.5,2.5,12,2.5
			c4.8,0,9.1-0.9,12.7-2.8c3.7-1.9,6.5-4.5,8.6-7.8c2.1-3.3,3.1-7.2,3.1-11.6v-0.1C831.4,1134.5,830.5,1130.9,828.7,1127.8z"/>
		<path class="st0" d="M828.7,1290.4c-1.7-3.1-4.1-5.5-7.2-7.3c-3.1-1.8-6.7-2.6-10.8-2.6c-2.8,0-5.4,0.4-7.7,1.3
			c-2.3,0.9-4.3,2.1-5.9,3.6c-1.6,1.5-2.9,3.3-3.7,5.2h-0.3c0-0.4,0-0.7,0-1.1c0-0.4,0-0.9,0.1-1.3c0.2-3.7,0.8-7.1,1.8-10.1
			c1-3,2.5-5.4,4.4-7.2c2-1.8,4.5-2.7,7.6-2.7c1.7,0,3.3,0.3,4.6,0.8c1.3,0.5,2.5,1.3,3.4,2.2c0.9,0.9,1.7,2.1,2.2,3.4l0.2,0.4h13.1
			l-0.1-0.4c-0.6-3.3-2-6.2-4.1-8.7c-2.1-2.5-4.9-4.5-8.1-6c-3.3-1.4-7-2.2-11-2.2c-5.5,0-10.2,1.3-14.2,4c-4,2.6-7,6.4-9.2,11.4
			c-2.1,5-3.2,10.9-3.2,17.8v0.1c0,5.4,0.7,10.1,2,14.1c1.3,4,3.2,7.4,5.5,10c2.4,2.7,5.2,4.7,8.4,6c3.2,1.3,6.7,2,10.6,2
			c4.7,0,8.9-0.9,12.6-2.8c3.7-1.9,6.5-4.5,8.7-7.8c2.1-3.3,3.2-7.1,3.2-11.5v-0.1C831.3,1297,830.4,1293.5,828.7,1290.4z
			 M818.3,1301.6c0,2.1-0.5,3.9-1.6,5.6c-1,1.7-2.4,3-4.2,4c-1.8,1-3.7,1.5-5.9,1.5c-2.2,0-4.1-0.5-5.9-1.5c-1.8-1-3.1-2.4-4.2-4.1
			c-1-1.7-1.5-3.6-1.5-5.7v-0.1c0-2.1,0.5-4,1.5-5.7s2.4-3,4.2-3.9c1.8-0.9,3.8-1.4,6-1.4c2.2,0,4.1,0.5,5.9,1.4
			c1.7,1,3.1,2.3,4.1,3.9C817.8,1297.3,818.3,1299.3,818.3,1301.6L818.3,1301.6z"/>
		<polygon class="st0" points="783.3,1431.8 815.5,1431.8 815.5,1432.1 788.3,1484.6 802.2,1484.6 828.6,1432 828.6,1421.3 
			783.3,1421.3 		"/>
	</g>
</g>
</svg>
