<?xml version="1.0" encoding="utf-8"?>
<!-- Generator: Adobe Illustrator 23.0.4, SVG Export Plug-In . SVG Version: 6.00 Build 0)  -->
<svg version="1.1" id="Calque_1" xmlns="http://www.w3.org/2000/svg" xmlns:xlink="http://www.w3.org/1999/xlink" x="0px" y="0px"
	 viewBox="0 0 36.1 36" style="enable-background:new 0 0 36.1 36;" xml:space="preserve">
<style type="text/css">
	.st0{fill:#F387CE;}
</style>
<g>
	<circle class="st0" cx="18" cy="18" r="4.7"/>
	<path class="st0" d="M23.5,6.6h-11c-1.5,0-2.9,0.6-4,1.7s-1.7,2.5-1.7,4v11.7c0,1.5,0.6,2.9,1.7,4s2.5,1.7,4,1.7h11
		c1.5,0,2.9-0.6,4-1.7s1.7-2.5,1.7-4V12.2c0-1.5-0.6-2.9-1.7-4S25,6.6,23.5,6.6z M18,25.2c-4,0-7.2-3.2-7.2-7.2s3.2-7.2,7.2-7.2
		s7.2,3.2,7.2,7.2S22,25.2,18,25.2z M25.4,12.4c-0.9,0-1.7-0.8-1.7-1.7c0-0.9,0.8-1.7,1.7-1.7c0.9,0,1.7,0.8,1.7,1.7
		C27.1,11.6,26.3,12.4,25.4,12.4z"/>
	<path class="st0" d="M28.2,0H7.8C3.5,0,0,3.5,0,7.9v20.2C0,32.5,3.5,36,7.8,36h20.4c4.3,0,7.8-3.5,7.8-7.9V7.9
		C36.1,3.5,32.6,0,28.2,0z M31.1,23.9c0,4.2-3.4,7.6-7.6,7.6h-11c-4.2,0-7.6-3.4-7.6-7.6V12.2c0-4.2,3.4-7.6,7.6-7.6h11
		c4.2,0,7.6,3.4,7.6,7.6V23.9z"/>
</g>
</svg>
