<?xml version="1.0" encoding="utf-8"?>
<!-- Generator: Adobe Illustrator 23.0.4, SVG Export Plug-In . SVG Version: 6.00 Build 0)  -->
<svg version="1.1" id="Calque_1" xmlns="http://www.w3.org/2000/svg" xmlns:xlink="http://www.w3.org/1999/xlink" x="0px" y="0px"
	 viewBox="0 0 36.1 36" style="enable-background:new 0 0 36.1 36;" xml:space="preserve">
<style type="text/css">
	.st0{fill:#F387CE;}
</style>
<g>
	<path class="st0" d="M18,9.9c-2.4,0-4.4,2-4.4,4.4s2,4.4,4.4,4.4c2.4,0,4.4-2,4.4-4.4S20.5,9.9,18,9.9z M18,15.8
		c-0.8,0-1.5-0.7-1.5-1.5s0.7-1.5,1.5-1.5s1.5,0.7,1.5,1.5S18.8,15.8,18,15.8z"/>
	<path class="st0" d="M28.2,0H7.8C3.5,0,0,3.5,0,7.9v20.2C0,32.5,3.5,36,7.8,36h20.4c4.3,0,7.8-3.5,7.8-7.9V7.9
		C36.1,3.5,32.6,0,28.2,0z M26.7,19.9l-7.4,11.4C19,31.7,18.5,32,18,32c-0.5,0-1-0.3-1.2-0.7L9.4,19.9c-1.1-1.7-1.7-3.6-1.7-5.6
		C7.7,8.6,12.3,4,18,4s10.3,4.6,10.3,10.3C28.4,16.3,27.8,18.3,26.7,19.9z"/>
</g>
</svg>
