<?xml version="1.0" encoding="utf-8"?>
<!-- Generator: Adobe Illustrator 23.0.4, SVG Export Plug-In . SVG Version: 6.00 Build 0)  -->
<svg version="1.1" id="Calque_1" xmlns="http://www.w3.org/2000/svg" xmlns:xlink="http://www.w3.org/1999/xlink" x="0px" y="0px"
	 viewBox="0 0 36.1 36.1" style="enable-background:new 0 0 36.1 36.1;" xml:space="preserve">
<style type="text/css">
	.st0{fill:#F387CE;}
</style>
<path class="st0" d="M27.5,0H8.6C3.9,0,0,3.9,0,8.6v18.9c0,4.7,3.9,8.6,8.6,8.6h18.9c4.7,0,8.6-3.9,8.6-8.6V8.6
	C36.1,3.9,32.2,0,27.5,0z M6.8,8.6c0.1,0,0.2,0,0.3,0c7.3,0,14.5,0,21.8,0c0.4,0,0.8,0.1,1.1,0.1c0,0,0,0.1,0,0.1
	c-0.4,0.4-0.8,0.8-1.2,1.1c-3.4,3.4-6.8,6.8-10.1,10.2c-0.5,0.5-1,0.5-1.5,0C13.6,16.5,9.9,12.7,6.2,9C6.1,9,6.1,8.9,6,8.8
	C6.3,8.7,6.6,8.7,6.8,8.6z M4.6,25.2c0-4.8,0-9.5,0-14.3c0-0.3,0.1-0.6,0.2-0.9c2.7,2.7,5.4,5.4,8.1,8.1c-2.7,2.7-5.4,5.3-8.1,8.1
	C4.7,25.8,4.6,25.5,4.6,25.2z M29.3,27.5c-0.1,0-0.2,0-0.3,0c-7.3,0-14.5,0-21.8,0c-0.4,0-0.8,0-1.1-0.2c2.7-2.7,5.4-5.4,8.1-8
	c0,0,0.1,0.1,0.2,0.2c0.6,0.6,1.3,1.3,1.9,1.9c1.1,1.1,2.6,1.1,3.7,0c0.7-0.7,1.4-1.4,2.1-2.1c2.7,2.7,5.4,5.3,8.1,8.1
	C29.8,27.4,29.5,27.4,29.3,27.5z M31.5,25.5c-0.1,0.2-0.1,0.5-0.2,0.7c-2.7-2.7-5.4-5.4-8.1-8c2.7-2.7,5.4-5.4,8.1-8
	c0.1,0.2,0.1,0.4,0.2,0.6C31.5,15.6,31.5,20.5,31.5,25.5z"/>
</svg>
