<?xml version="1.0" encoding="utf-8"?>
<!-- Generator: Adobe Illustrator 23.0.4, SVG Export Plug-In . SVG Version: 6.00 Build 0)  -->
<svg version="1.1" id="Calque_1" xmlns="http://www.w3.org/2000/svg" xmlns:xlink="http://www.w3.org/1999/xlink" x="0px" y="0px"
	 viewBox="0 0 36.1 36.1" style="enable-background:new 0 0 36.1 36.1;" xml:space="preserve">
<style type="text/css">
	.st0{fill:#F387CE;}
</style>
<path class="st0" d="M8.6,0C3.9,0,0,3.9,0,8.6v18.9c0,4.7,3.9,8.6,8.6,8.6h18.9c4.7,0,8.6-3.9,8.6-8.6V8.6c0-4.7-3.9-8.6-8.6-8.6
	H8.6z M12,6.9c0.5,0,1,0.3,1.3,0.8c0.3,0.5,0.9,1.4,1.6,2.4c0.6,1,0.7,2.2,0.1,3.3l-1.3,1.8c-0.3,0.5-0.4,1.1-0.2,1.7
	c0.4,0.9,1,2.2,2.3,3.4s2.5,1.9,3.4,2.3c0.5,0.2,1.2,0.2,1.7-0.2l1.8-1.3c1-0.6,2.3-0.5,3.3,0.1c1.1,0.7,1.9,1.2,2.4,1.6
	c0.5,0.3,0.8,0.8,0.8,1.3c0.1,3.1-2.2,4.3-2.9,4.3c-0.5,0-6.2,0.7-12.7-5.8S7.7,10.3,7.7,9.8C7.7,9.1,9,6.8,12,6.9z"/>
</svg>
